<?xml version="1.0" encoding="UTF-8" standalone="no"?>
<!-- Created with Inkscape (http://www.inkscape.org/) -->

<svg
   xmlns:dc="http://purl.org/dc/elements/1.1/"
   xmlns:cc="http://creativecommons.org/ns#"
   xmlns:rdf="http://www.w3.org/1999/02/22-rdf-syntax-ns#"
   xmlns:svg="http://www.w3.org/2000/svg"
   xmlns="http://www.w3.org/2000/svg"
   xmlns:xlink="http://www.w3.org/1999/xlink"
   xmlns:sodipodi="http://sodipodi.sourceforge.net/DTD/sodipodi-0.dtd"
   xmlns:inkscape="http://www.inkscape.org/namespaces/inkscape"
   width="32"
   height="32"
   viewBox="0 0 32 32"
   id="svg2"
   version="1.1"
   inkscape:version="0.91 r13725"
   sodipodi:docname="pinceau.svg"
   inkscape:export-filename="C:\Users\KILIC\Desktop\pinceau.png"
   inkscape:export-xdpi="90"
   inkscape:export-ydpi="90">
  <defs
     id="defs4">
    <linearGradient
       inkscape:collect="always"
       id="linearGradient4178">
      <stop
         style="stop-color:#ffffff;stop-opacity:1;"
         offset="0"
         id="stop4180" />
      <stop
         style="stop-color:#ffffff;stop-opacity:0;"
         offset="1"
         id="stop4182" />
    </linearGradient>
    <radialGradient
       inkscape:collect="always"
       xlink:href="#linearGradient4178"
       id="radialGradient4184"
       cx="10.714286"
       cy="10.927404"
       fx="10.714286"
       fy="10.927404"
       r="15.781096"
       gradientTransform="matrix(1,0,0,1.0173103,0,-0.27727366)"
       gradientUnits="userSpaceOnUse" />
  </defs>
  <sodipodi:namedview
     id="base"
     pagecolor="#ffffff"
     bordercolor="#666666"
     borderopacity="1.0"
     inkscape:pageopacity="0.0"
     inkscape:pageshadow="2"
     inkscape:zoom="11.2"
     inkscape:cx="18.215821"
     inkscape:cy="15.21258"
     inkscape:document-units="px"
     inkscape:current-layer="layer2"
     showgrid="false"
     units="px"
     inkscape:window-width="1440"
     inkscape:window-height="838"
     inkscape:window-x="-8"
     inkscape:window-y="-8"
     inkscape:window-maximized="1" />
  <metadata
     id="metadata7">
    <rdf:RDF>
      <cc:Work
         rdf:about="">
        <dc:format>image/svg+xml</dc:format>
        <dc:type
           rdf:resource="http://purl.org/dc/dcmitype/StillImage" />
        <dc:title></dc:title>
      </cc:Work>
    </rdf:RDF>
  </metadata>
  <g
     inkscape:label="ciel"
     inkscape:groupmode="layer"
     id="layer1"
     transform="translate(0,-1020.3622)"
     sodipodi:insensitive="true">
    <ellipse
       style="opacity:1;fill:#aaeeff;fill-opacity:1;stroke:none;stroke-width:0.2;stroke-linecap:round;stroke-linejoin:round;stroke-miterlimit:4;stroke-dasharray:none;stroke-opacity:1"
       id="path4138"
       cx="15.915239"
       cy="1036.3859"
       rx="15.69333"
       ry="15.964986" />
  </g>
  <g
     inkscape:groupmode="layer"
     id="layer5"
     inkscape:label="ciel lumiere"
     sodipodi:insensitive="true">
    <ellipse
       style="opacity:1;fill:url(#radialGradient4184);fill-opacity:1;stroke:none;stroke-width:0.2;stroke-linecap:round;stroke-linejoin:round;stroke-miterlimit:4;stroke-dasharray:none;stroke-opacity:1"
       id="path4138-1"
       cx="15.892858"
       cy="16.017859"
       rx="15.781096"
       ry="16.054272" />
  </g>
  <g
     inkscape:groupmode="layer"
     id="layer2"
     inkscape:label="pinceau"
     transform="translate(0,-224)"
     sodipodi:insensitive="true">
    <path
       style="fill:#532608;fill-opacity:1;fill-rule:evenodd;stroke:#000000;stroke-width:0.18252046px;stroke-linecap:butt;stroke-linejoin:miter;stroke-opacity:1"
       d="m 15.186216,245.37863 c -1.167647,0.92274 -1.860444,2.46455 -1.950622,4.01603 l -0.156919,2.69989 c -0.128601,2.21259 -2.765606,0.73749 -2.765606,0.73749 0,0 2.868646,1.97835 4.491643,1.89572 2.144156,-0.10916 4.448375,-1.31424 5.648904,-3.09415 0.882376,-1.30821 1.474984,-3.68747 0.553116,-4.70152 -0.92186,-1.01405 -2.857788,-2.21248 -2.857788,-2.21248 0,0 -2.168947,0.0318 -2.962728,0.65902 z"
       id="path4151"
       inkscape:connector-curvature="0"
       sodipodi:nodetypes="asscaasca" />
    <path
       style="fill:#984915;fill-opacity:1;fill-rule:evenodd;stroke:#3b1b07;stroke-width:0.3366569;stroke-linecap:butt;stroke-linejoin:miter;stroke-miterlimit:4;stroke-dasharray:none;stroke-opacity:1"
       d="m 18.620617,244.49374 2.373267,1.78032 c 0,0 3.742332,-3.84888 6.222454,-8.64475 3.686959,-7.12957 4.480314,-12.71676 4.480314,-12.71676 l -0.791611,-0.53344 c 0,0 -5.253591,5.28982 -8.341898,10.54652 -3.088316,5.25669 -3.942526,9.56811 -3.942526,9.56811 z"
       id="path4153"
       inkscape:connector-curvature="0"
       sodipodi:nodetypes="ccsccsc" />
  </g>
  <g
     inkscape:groupmode="layer"
     id="layer3"
     inkscape:label="peinture"
     sodipodi:insensitive="true">
    <path
       style="fill:#2ad4ff;fill-opacity:1;fill-rule:evenodd;stroke:#000000;stroke-width:0.20323935;stroke-linecap:butt;stroke-linejoin:miter;stroke-miterlimit:4;stroke-dasharray:none;stroke-opacity:1"
       d="m 13.404909,24.145643 c 0,0 -0.304746,1.138788 -0.304746,2.42193 0,1.283142 0.192472,1.892634 -0.577415,2.373813 -0.774197,0.483873 -2.19738,-0.112274 -2.19738,-0.112274 0,0 2.373813,1.732241 3.721113,1.892633 1.347299,0.160394 3.432405,-0.160392 5.132568,-1.700163 1.700164,-1.539771 1.732242,-2.309655 1.700164,-2.534206 -0.03208,-0.22455 -0.641571,-0.898198 -1.154828,-0.41702 -0.513258,0.481178 -1.186907,1.828477 -1.828478,1.283141 -0.641571,-0.545334 0.737807,-2.566284 -1.026513,-2.149262 -1.764321,0.417021 -2.181343,3.272013 -2.662521,1.892634 -0.481178,-1.379377 -0.06415,-2.373813 -0.449099,-2.790834 -0.384944,-0.417021 -0.352865,-0.160392 -0.352865,-0.160392 z"
       id="path4156"
       inkscape:connector-curvature="0"
       sodipodi:nodetypes="csscsscsssssc" />
  </g>
  <g
     inkscape:groupmode="layer"
     id="layer4"
     inkscape:label="lumiere"
     sodipodi:insensitive="true">
    <path
       style="opacity:1;fill:#ffffff;fill-opacity:1;stroke:none;stroke-width:0.2;stroke-linecap:round;stroke-linejoin:round;stroke-miterlimit:4;stroke-dasharray:none;stroke-opacity:1"
       d="m 17.977102,29.117978 c 0,0 -0.771612,1.124558 -2.660159,1.365814 -0.942628,0.120418 -2.764179,-0.397008 -2.764179,-0.697667 -10e-7,-0.300659 0.200924,0.645127 2.879205,0.08893 1.660202,-0.344778 2.44168,-1.03937 2.545133,-0.757069 z"
       id="path4159"
       inkscape:connector-curvature="0"
       sodipodi:nodetypes="sssss" />
  </g>
</svg>
